<svg width="93" height="95" viewBox="0 0 93 95" fill="none" xmlns="http://www.w3.org/2000/svg">
<path d="M27.4946 78.5645C34.255 99.2782 50.0292 96.1044 57.0713 91.9282C68.0569 88.8565 82.4227 48.4963 91.7183 20.9337C101.014 -6.62891 57.0713 0.0529279 46.0856 2.55862C35.1 5.06431 -13.9128 10.9109 3.83322 36.803C21.5792 62.6952 19.0441 52.6724 27.4946 78.5645Z" fill="#00C458" fill-opacity="0.08"/>
<rect x="21.5" y="13.5" width="49" height="65" rx="1.5" fill="white" stroke="#EEEEEE"/>
<g clip-path="url(#clip0_562_2266)">
<rect x="40.7987" y="45.3241" width="6.85714" height="2.57143" transform="rotate(45 40.7987 45.3241)" fill="#00C458"/>
<rect x="42.0111" y="50.1727" width="17.6267" height="2.57143" transform="rotate(-45 42.0111 50.1727)" fill="#00C458"/>
<path fill-rule="evenodd" clip-rule="evenodd" d="M55.5 46C55.5 51.2467 51.2467 55.5 46 55.5C40.7533 55.5 36.5 51.2467 36.5 46C36.5 40.7533 40.7533 36.5 46 36.5C48.0209 36.5 49.8944 37.131 51.4342 38.2067L53.2239 36.4171C51.2142 34.8998 48.7122 34 46 34C39.3726 34 34 39.3726 34 46C34 52.6274 39.3726 58 46 58C52.6274 58 58 52.6274 58 46C58 44.3252 57.6569 42.7305 57.0371 41.2823L55.0897 43.2297C55.3565 44.1062 55.5 45.0363 55.5 46Z" fill="#00C458"/>
</g>
<defs>
<clipPath id="clip0_562_2266">
<rect width="24" height="24" fill="white" transform="translate(34 34)"/>
</clipPath>
</defs>
</svg>
