<svg width="24" height="24" viewBox="0 0 24 24" fill="none" xmlns="http://www.w3.org/2000/svg">
<path d="M10.9143 8.12128C11.1095 7.92601 11.4261 7.92601 11.6214 8.12128L15.1569 11.6568C15.3522 11.8521 15.3522 12.1687 15.1569 12.3639C14.9616 12.5592 14.6451 12.5592 14.4498 12.3639L10.9143 8.82838C10.719 8.63312 10.719 8.31654 10.9143 8.12128Z" fill="#D5D5D5"/>
<path d="M10.9143 15.8995C10.719 15.7042 10.719 15.3876 10.9143 15.1923L14.4498 11.6568C14.6451 11.4615 14.9616 11.4615 15.1569 11.6568C15.3522 11.8521 15.3522 12.1687 15.1569 12.3639L11.6214 15.8995C11.4261 16.0947 11.1095 16.0947 10.9143 15.8995Z" fill="#D5D5D5"/>
<rect x="0.5" y="0.5" width="23" height="23" rx="11.5" stroke="#D5D5D5"/>
</svg>
